# xmcd CD database file
#
# Track frame offsets:
#	150
#	9703
#	20181
#	33287
#	46493
#	60443
#	70060
#	84533
#	94553
#	105133
#	114821
#	123466
#	133700
#
# Disc length: 1930 seconds
#
# Revision: 0
# Processed by: cddbd v1.5.1PL2 Copyright (c) Steve Scherf et al.
# Submitted via: CDex 1.51
#
DISCID=9d07880d
DTITLE=Angelina and Friends - A Taste of Italy
DYEAR=2005
DGENRE=New Age
TTITLE0=Luna Mezzo Marie
TTITLE1=Santa Lucia
TTITLE2=O Marenariello
TTITLE3=Theme from "Romeo and Juliet"
TTITLE4=Libiamo Ne' Lieti Calici
TTITLE5=That's Amore
TTITLE6=Core N'Grato
TTITLE7=O Mio Babbino Caro
TTITLE8=Quando M'en Vo'Soletta
TTITLE9=Theme from "The Godfather"
TTITLE10=O Marie
TTITLE11=Ciribiribin
TTITLE12=L'Italiano
EXTD=YEAR: 2005
EXTT0=
EXTT1=
EXTT2=
EXTT3=
EXTT4=
EXTT5=
EXTT6=
EXTT7=
EXTT8=
EXTT9=
EXTT10=
EXTT11=
EXTT12=
PLAYORDER=
